PathFileType	4	(X/Y/Z)	/Users/visionmauri/4_2_1_f_1_Sports2D/4_2_1_f_1_Sports2D_m_person00.trc
DataRate	CameraRate	NumFrames	NumMarkers	Units	OrigDataRate	OrigDataStartFrame	OrigNumFrames
30.0	30.0	11	22	m	30.0	334	382
Frame#	Time	Hip			RHip			RKnee			RAnkle			RBigToe			RSmallToe			RHeel			LHip			LKnee			LAnkle			LBigToe			LSmallToe			LHeel			Neck			Head			Nose			RShoulder			RElbow			RWrist			LShoulder			LElbow			LWrist			
		X1	Y1	Z1	X2	Y2	Z2	X3	Y3	Z3	X4	Y4	Z4	X5	Y5	Z5	X6	Y6	Z6	X7	Y7	Z7	X8	Y8	Z8	X9	Y9	Z9	X10	Y10	Z10	X11	Y11	Z11	X12	Y12	Z12	X13	Y13	Z13	X14	Y14	Z14	X15	Y15	Z15	X16	Y16	Z16	X17	Y17	Z17	X18	Y18	Z18	X19	Y19	Z19	X20	Y20	Z20	X21	Y21	Z21	X22	Y22	Z22
334	11.162554680664915	1.2979122248198771	0.8336608702149949	0.0301	1.1676946048331327	0.8471254071200179	0.0301	0.999769948991726	0.4086659953069574	0.129	0.8293396981924479	-0.08453502390737791	0.023	0.7452961071513432	-0.24959361159242732	0.2179	0.6888802470943464	-0.21149886518917524	0.1804	0.8673065540407419	-0.19543267555748586	-0.0119	1.4239120457774768	0.7673503032386583	0.0301	1.3080269970869982	0.2903694556966954	0.129	1.1972369852474187	-0.18943024967464434	0.023	1.200096980579228	-0.3680402098098329	0.2179	1.279564087919984	-0.36890948932163453	0.1804	1.1423751959628814	-0.25621198827826613	-0.0119	1.5032768392098774	1.5524428675674737	0.0008	1.5241564572165838	1.8302542137485152	0.0655	1.4409462782797058	1.5869710395402483	0.1076	1.2650268941782237	1.5172690348517721	-0.01275	1.0260727015317013	1.2217417299099251	0.0702	0.7694651695713178	1.0015246855807751	0.1076	1.7298710744057162	1.4268905572784976	-0.01275	1.7378111856827048	1.0436650183126148	0.0702	1.6675372083388802	0.7989037806008875	0.1076
335	11.195975503062115	1.2975229485429245	0.8335575767169646	0.0301	1.1675485063656943	0.8493519202164896	0.0301	0.9989916263580152	0.4111684069905377	0.129	0.8227742764625439	-0.0864897110332291	0.023	0.7379288826448186	-0.2509295642492824	0.2179	0.6836824970460005	-0.2117076341906859	0.1804	0.8669228573922894	-0.1997046914578964	-0.0119	1.4247298195742135	0.7701832863020245	0.0301	1.3079211248240303	0.28875057967223206	0.129	1.1971888902893848	-0.1901912921148016	0.023	1.2005689454030382	-0.3716917032249037	0.2179	1.2791840335482119	-0.370216480706138	0.1804	1.1424310122170682	-0.2545307203539533	-0.0119	1.5024241439796395	1.5518508236147002	0.0008	1.5244757078067068	1.8319123035198546	0.0655	1.4380961323438375	1.588709606831305	0.1076	1.2619537675246628	1.518661047926095	-0.01275	1.0230834961769766	1.2226709208132593	0.0702	0.7688935019265076	1.001858757250098	0.1076	1.7272342006779409	1.4288723596832875	-0.01275	1.7386915332899275	1.047126957684776	0.0702	1.6676416979466355	0.7923854968351203	0.1076
336	11.229396325459316	1.2973947855395258	0.8339429429030325	0.0301	1.1677862799175442	0.85195196055598	0.0301	0.9992501282045438	0.4151917683427176	0.129	0.8202651741211289	-0.09042287401621737	0.023	0.7337891903519076	-0.2536377235079582	0.2179	0.6787505312965896	-0.21204284372745025	0.1804	0.8684851249376989	-0.2018657225620853	-0.0119	1.4254821019010706	0.7728144549270407	0.0301	1.307985238048189	0.28760295396688956	0.129	1.197321617190176	-0.1909038122776638	0.023	1.2020910551050572	-0.3738034297019249	0.2179	1.280673132431	-0.370479776976806	0.1804	1.1401424975231058	-0.255869751032575	-0.0119	1.5004752379627697	1.5518910633402845	0.0008	1.5233820404610032	1.8322766836203634	0.0655	1.4378614543978208	1.5893104435647185	0.1076	1.2593156256988536	1.519354933774134	-0.01275	1.0200640399668148	1.2238198972840797	0.0702	0.7689341941896952	1.0016773813716646	0.1076	1.7266076131173647	1.4312237654495774	-0.01275	1.7391032596524603	1.0506868690071938	0.0702	1.6696967252477977	0.7875316965088116	0.1076
337	11.262817147856516	1.2971410846085514	0.8354903050625512	0.0301	1.1674404174405246	0.8515391390296891	0.0301	1.0004428694962797	0.4222360131731421	0.129	0.8210849802992631	-0.09961072970039556	0.023	0.7317535060330114	-0.2592250415689658	0.2179	0.6755506102127672	-0.21172656685589858	0.1804	0.8700235115332426	-0.2092558927511495	-0.0119	1.4255113667841468	0.7726948311124954	0.0301	1.3078700652284818	0.28564110319816577	0.129	1.19668564422202	-0.19319751176860525	0.023	1.2032817251889496	-0.3721077029958525	0.2179	1.2820478684492038	-0.3697917988899745	0.1804	1.137194145568085	-0.26080093240103164	-0.0119	1.4983431718591245	1.5520044581402106	0.0008	1.5200678012620592	1.83225472077207	0.0655	1.4363348186445626	1.5890495465441936	0.1076	1.2571250488801549	1.5194272265387716	-0.01275	1.0191418776786716	1.224270472042698	0.0702	0.7674438831769955	1.0010072576802473	0.1076	1.7271150458812032	1.4329264394464756	-0.01275	1.739331299992776	1.0513429805388306	0.0702	1.6733274863854442	0.787201809140343	0.1076
338	11.296237970253717	1.2956032089134932	0.8354035467703751	0.0301	1.1650485092618834	0.8486031688715282	0.0301	0.9996728395448686	0.42802861289222655	0.129	0.820906818826136	-0.10978300784022534	0.023	0.7298834296288959	-0.2633846922698555	0.2179	0.6735667792026302	-0.21319980297679875	0.1804	0.8670703618049899	-0.21835647985295914	-0.0119	1.4240295195806565	0.7699566151329749	0.0301	1.3080061512211256	0.2837157626849548	0.129	1.1949007170558785	-0.1959990611426579	0.023	1.204250523566736	-0.3690825734642742	0.2179	1.282107676327974	-0.3696935856623564	0.1804	1.1359250460911334	-0.26586049359172487	-0.0119	1.4976557265824142	1.5516931287026905	0.0008	1.516537191872686	1.8325381105538074	0.0655	1.4319392141078515	1.5888935598892142	0.1076	1.2558426158981086	1.5195709232669996	-0.01275	1.0187904780575734	1.2244592565090282	0.0702	0.764047667899239	1.0002574504196142	0.1076	1.7264028762771606	1.432824690854551	-0.01275	1.7390364323786034	1.0493036776935885	0.0702	1.6756962166359644	0.7893983355178783	0.1076
339	11.329658792650918	1.2927388031179938	0.8310448840420811	0.0301	1.1600860319350894	0.8448415423758311	0.0301	0.9933356949046783	0.42372715498269314	0.129	0.8166810615967073	-0.11567788600811169	0.023	0.7266926149220996	-0.26470424981641477	0.2179	0.6712463446200583	-0.22084918478350574	0.1804	0.856604413896579	-0.22264995142613592	-0.0119	1.421231996568652	0.7667969549722554	0.0301	1.3086044121572382	0.2824376449539531	0.129	1.1929370761943778	-0.19713056120741218	0.023	1.2055011571849403	-0.36865943168492804	0.2179	1.2811647332664178	-0.3702665283876165	0.1804	1.1363941062556229	-0.2680809136518033	-0.0119	1.4974914665315469	1.55187291378518	0.0008	1.5142080159268974	1.8328409845899052	0.0655	1.4276940323279186	1.5897336125244306	0.1076	1.254715721853541	1.5202139832318886	-0.01275	1.0166745493654596	1.2245019553047167	0.0702	0.7603344175575928	0.9989108598813667	0.1076	1.7239947328077947	1.4319757921973268	-0.01275	1.7380347524733304	1.0466244935953408	0.0702	1.675977748283855	0.7911460438651691	0.1076
340	11.363079615048118	1.290592938072649	0.8257486134112465	0.0301	1.154956991621709	0.8412606552365451	0.0301	0.983400702278067	0.4093979571305366	0.129	0.8109723692439537	-0.11730280576600363	0.023	0.7227079911557733	-0.26724785584338495	0.2179	0.669354206047864	-0.2311395006348925	0.1804	0.8442693272129673	-0.22342810053284634	-0.0119	1.4178438623483611	0.7652876282394921	0.0301	1.309227932278206	0.2822948339744708	0.129	1.1918884826879816	-0.19668117485711445	0.023	1.206488978460962	-0.37090008372629124	0.2179	1.2803073380217034	-0.37016748547814454	0.1804	1.1371704133978007	-0.2678382609459402	-0.0119	1.494541993187126	1.5534007992462175	0.0008	1.5124455969956776	1.8335710394015747	0.0655	1.425481490669447	1.5918555169158746	0.1076	1.2508579386369143	1.5209681997492484	-0.01275	1.0120820211941013	1.2222595060144164	0.0702	0.7565838382019606	0.9971915252087414	0.1076	1.7206285879370669	1.4324011099718559	-0.01275	1.7358039058352799	1.0450609330888954	0.0702	1.6760778334900353	0.7915143858256748	0.1076
341	11.396500437445317	1.2901809787374374	0.8252015975645811	0.0301	1.15225111307454	0.839222474033315	0.0301	0.9761891622583911	0.3952499624770515	0.129	0.8068070385922091	-0.11815455150773599	0.023	0.718653365038052	-0.27321730000292027	0.2179	0.6678094369924145	-0.23741427072074972	0.1804	0.8377112634170688	-0.2264850528048563	-0.0119	1.4143474953763948	0.7655767708106529	0.0301	1.3096682066631624	0.2836072585781173	0.129	1.1917323961522874	-0.1961694118907185	0.023	1.2071255974209396	-0.37277394684961757	0.2179	1.2806492972556918	-0.3694982598418156	0.1804	1.1375215934031768	-0.2669564246777835	-0.0119	1.4881744590083994	1.5555265283123023	0.0008	1.510498773057301	1.8355695629128932	0.0655	1.4234831773230745	1.5952016345754652	0.1076	1.2439015706059722	1.5214723296695891	-0.01275	1.0060422822163004	1.2180303653391376	0.0702	0.7525679967674823	0.9968744732462653	0.1076	1.7166146872229635	1.4345711815325035	-0.01275	1.7319515687108946	1.0461410687696437	0.0702	1.6767450916797713	0.7913376440520278	0.1076
342	11.429921259842518	1.2889404242325215	0.8282457411272608	0.0301	1.150592655161164	0.8389909950477613	0.0301	0.9745475408436516	0.3875090312386542	0.129	0.8040417822963191	-0.12159081663907467	0.023	0.7158041370777819	-0.28096180338008714	0.2179	0.6642045118955524	-0.24172803087982	0.1804	0.8365954214339657	-0.23397115526165416	-0.0119	1.4112360919770461	0.7664402732268515	0.0301	1.3099845272528028	0.28442365779877776	0.129	1.1918150745902245	-0.19654091945977778	0.023	1.2077054339572075	-0.37322611544289624	0.2179	1.2824230699956536	-0.36999582681470117	0.1804	1.1376485275570052	-0.26706064143607855	-0.0119	1.4810072543948725	1.5567944415118113	0.0008	1.5081121411689815	1.8380477237939208	0.0655	1.4209798104768336	1.5985671782314845	0.1076	1.2371749722269914	1.5215997610644854	-0.01275	1.0007204377151293	1.2164157267781959	0.0702	0.7503015355587171	0.9981578001648889	0.1076	1.7122468435504	1.4376202594133958	-0.01275	1.7272415979470783	1.0496512659762187	0.0702	1.676201489868633	0.7914812086767948	0.1076
343	11.463342082239718	1.284015624716074	0.828092571228599	0.0301	1.1471984634496029	0.8372077666735019	0.0301	0.9761831452338029	0.3814251357398463	0.129	0.8028517579973444	-0.12840941667057085	0.023	0.7162737003742876	-0.29026838558064605	0.2179	0.6587864051376958	-0.25013745536459586	0.1804	0.8368218960022435	-0.2427666582800584	-0.0119	1.408444598670988	0.7660162231631877	0.0301	1.3098106632757018	0.2831596718569214	0.129	1.1919138714447497	-0.19715338945748853	0.023	1.2079266705612666	-0.37319943590130333	0.2179	1.284210528481357	-0.3717906789371956	0.1804	1.1376931499024658	-0.268519861625078	-0.0119	1.4736153263036498	1.556960305931836	0.0008	1.5050295653336117	1.839574590725327	0.0655	1.4192432582882435	1.5992520755345965	0.1076	1.2310031689425096	1.5206414012757745	-0.01275	0.9962683732614858	1.2181002887616041	0.0702	0.750265395136253	0.9981121231509187	0.1076	1.7067742611060297	1.4405553301162752	-0.01275	1.7224362771911004	1.0525149373894627	0.0702	1.6732397092677658	0.7925678549939194	0.1076
344	11.496762904636919	1.2764251706762497	0.8224307918860398	0.0301	1.1420476344600996	0.8302674894144205	0.0301	0.9777593041450234	0.3704874130520074	0.129	0.8042662154637678	-0.13595664629917772	0.023	0.7206144311701245	-0.3023217186388402	0.2179	0.6564511158983711	-0.2620599586261313	0.1804	0.8369421185972387	-0.24808971179620096	-0.0119	1.4043982620302562	0.7622046297708521	0.0301	1.3082177831849189	0.2804132328025806	0.129	1.192184947718384	-0.19647509209146555	0.023	1.208710146492921	-0.373070528521332	0.2179	1.2843401808183372	-0.37249139268940795	0.1804	1.1370519633403993	-0.27009234916176184	-0.0119	1.464546162159285	1.55785491285571	0.0008	1.5007439185459988	1.8400609000301813	0.0655	1.418924997929563	1.5963240738852593	0.1076	1.2215295184322323	1.5183328272685832	-0.01275	0.9902044535615048	1.2180742582960602	0.0702	0.7487911589909192	0.9949071671582186	0.1076	1.6987977091778361	1.443556741667329	-0.01275	1.7166029452746498	1.052579357564948	0.0702	1.669188193982323	0.795267658051646	0.1076
